<mxfile>
    <diagram id="pSi_eMwhoMpgkPWuDj_4" name="第 1 页">
        <mxGraphModel dx="1701" dy="1167" grid="1" gridSize="10" guides="1" tooltips="1" connect="1" arrows="1" fold="1" page="1" pageScale="1" pageWidth="827" pageHeight="1169" math="0" shadow="0">
            <root>
                <mxCell id="0"/>
                <mxCell id="1" parent="0"/>
                <mxCell id="2" value="从帧序列生成视频" style="rounded=1;whiteSpace=wrap;html=1;" vertex="1" parent="1">
                    <mxGeometry x="480" y="565" width="170" height="60" as="geometry"/>
                </mxCell>
                <mxCell id="3" value="从消息文本和角色设置生成音频" style="rounded=1;whiteSpace=wrap;html=1;" vertex="1" parent="1">
                    <mxGeometry x="174" y="445" width="210" height="60" as="geometry"/>
                </mxCell>
                <mxCell id="4" value="合成角色音频片段和背景音乐,音效" style="rounded=1;whiteSpace=wrap;html=1;" vertex="1" parent="1">
                    <mxGeometry x="169" y="565" width="220" height="60" as="geometry"/>
                </mxCell>
                <mxCell id="5" value="合成结果视频" style="rounded=1;whiteSpace=wrap;html=1;" vertex="1" parent="1">
                    <mxGeometry x="334" y="705" width="120" height="60" as="geometry"/>
                </mxCell>
                <mxCell id="6" value="回放,下载" style="rounded=1;whiteSpace=wrap;html=1;" vertex="1" parent="1">
                    <mxGeometry x="334" y="795" width="120" height="60" as="geometry"/>
                </mxCell>
                <mxCell id="7" value="从聊天记录解析为格式化消息" style="rounded=1;whiteSpace=wrap;html=1;" vertex="1" parent="1">
                    <mxGeometry x="349" y="105" width="180" height="60" as="geometry"/>
                </mxCell>
                <mxCell id="8" value="从格式化消息解析消息队列" style="rounded=1;whiteSpace=wrap;html=1;" vertex="1" parent="1">
                    <mxGeometry x="349" y="195" width="180" height="60" as="geometry"/>
                </mxCell>
                <mxCell id="9" value="角色编辑" style="rounded=1;whiteSpace=wrap;html=1;" vertex="1" parent="1">
                    <mxGeometry x="219" y="335" width="120" height="60" as="geometry"/>
                </mxCell>
                <mxCell id="10" value="场景设置&lt;br&gt;消息队列&lt;br&gt;时间轴" style="rounded=1;whiteSpace=wrap;html=1;" vertex="1" parent="1">
                    <mxGeometry x="570" y="335" width="130" height="60" as="geometry"/>
                </mxCell>
                <mxCell id="11" value="离屏渲染器" style="rounded=1;whiteSpace=wrap;html=1;" vertex="1" parent="1">
                    <mxGeometry x="505" y="445" width="120" height="60" as="geometry"/>
                </mxCell>
                <mxCell id="12" value="播放/编辑器" style="rounded=1;whiteSpace=wrap;html=1;" vertex="1" parent="1">
                    <mxGeometry x="650" y="445" width="120" height="60" as="geometry"/>
                </mxCell>
                <mxCell id="13" value="" style="endArrow=classic;html=1;exitX=0.5;exitY=1;exitDx=0;exitDy=0;entryX=0.5;entryY=0;entryDx=0;entryDy=0;" edge="1" parent="1" source="7" target="8">
                    <mxGeometry width="50" height="50" relative="1" as="geometry">
                        <mxPoint x="659" y="185" as="sourcePoint"/>
                        <mxPoint x="709" y="135" as="targetPoint"/>
                    </mxGeometry>
                </mxCell>
                <mxCell id="14" value="" style="endArrow=classic;html=1;exitX=0.25;exitY=1;exitDx=0;exitDy=0;entryX=0.5;entryY=0;entryDx=0;entryDy=0;" edge="1" parent="1" source="8" target="9">
                    <mxGeometry width="50" height="50" relative="1" as="geometry">
                        <mxPoint x="419" y="345" as="sourcePoint"/>
                        <mxPoint x="469" y="295" as="targetPoint"/>
                        <Array as="points">
                            <mxPoint x="394" y="295"/>
                            <mxPoint x="279" y="295"/>
                        </Array>
                    </mxGeometry>
                </mxCell>
                <mxCell id="15" value="" style="endArrow=classic;html=1;exitX=0.711;exitY=1.033;exitDx=0;exitDy=0;exitPerimeter=0;entryX=0.5;entryY=0;entryDx=0;entryDy=0;" edge="1" parent="1" source="8" target="10">
                    <mxGeometry width="50" height="50" relative="1" as="geometry">
                        <mxPoint x="639" y="285" as="sourcePoint"/>
                        <mxPoint x="689" y="235" as="targetPoint"/>
                        <Array as="points">
                            <mxPoint x="477" y="295"/>
                            <mxPoint x="635" y="295"/>
                        </Array>
                    </mxGeometry>
                </mxCell>
                <mxCell id="16" value="" style="endArrow=classic;html=1;exitX=0.5;exitY=1;exitDx=0;exitDy=0;entryX=0.5;entryY=0;entryDx=0;entryDy=0;" edge="1" parent="1" source="9" target="3">
                    <mxGeometry width="50" height="50" relative="1" as="geometry">
                        <mxPoint x="409" y="395" as="sourcePoint"/>
                        <mxPoint x="459" y="345" as="targetPoint"/>
                    </mxGeometry>
                </mxCell>
                <mxCell id="17" value="" style="endArrow=classic;html=1;exitX=0.5;exitY=1;exitDx=0;exitDy=0;entryX=0.5;entryY=0;entryDx=0;entryDy=0;" edge="1" parent="1" source="3" target="4">
                    <mxGeometry width="50" height="50" relative="1" as="geometry">
                        <mxPoint x="239" y="755" as="sourcePoint"/>
                        <mxPoint x="279" y="555" as="targetPoint"/>
                    </mxGeometry>
                </mxCell>
                <mxCell id="18" value="" style="endArrow=classic;html=1;exitX=0.25;exitY=1;exitDx=0;exitDy=0;entryX=0.5;entryY=0;entryDx=0;entryDy=0;" edge="1" parent="1" source="10" target="11">
                    <mxGeometry width="50" height="50" relative="1" as="geometry">
                        <mxPoint x="789" y="395" as="sourcePoint"/>
                        <mxPoint x="839" y="345" as="targetPoint"/>
                        <Array as="points">
                            <mxPoint x="603" y="415"/>
                            <mxPoint x="565" y="415"/>
                        </Array>
                    </mxGeometry>
                </mxCell>
                <mxCell id="19" value="" style="endArrow=classic;html=1;exitX=0.75;exitY=1;exitDx=0;exitDy=0;entryX=0.5;entryY=0;entryDx=0;entryDy=0;" edge="1" parent="1" source="10" target="12">
                    <mxGeometry width="50" height="50" relative="1" as="geometry">
                        <mxPoint x="819" y="425" as="sourcePoint"/>
                        <mxPoint x="869" y="375" as="targetPoint"/>
                        <Array as="points">
                            <mxPoint x="668" y="415"/>
                            <mxPoint x="710" y="415"/>
                        </Array>
                    </mxGeometry>
                </mxCell>
                <mxCell id="20" value="" style="endArrow=classic;html=1;exitX=0.5;exitY=1;exitDx=0;exitDy=0;entryX=0.5;entryY=0;entryDx=0;entryDy=0;" edge="1" parent="1" source="11" target="2">
                    <mxGeometry width="50" height="50" relative="1" as="geometry">
                        <mxPoint x="729" y="645" as="sourcePoint"/>
                        <mxPoint x="779" y="595" as="targetPoint"/>
                    </mxGeometry>
                </mxCell>
                <mxCell id="21" value="" style="endArrow=classic;html=1;exitX=0.5;exitY=1;exitDx=0;exitDy=0;entryX=0.5;entryY=0;entryDx=0;entryDy=0;" edge="1" parent="1" source="4" target="5">
                    <mxGeometry width="50" height="50" relative="1" as="geometry">
                        <mxPoint x="219" y="775" as="sourcePoint"/>
                        <mxPoint x="269" y="725" as="targetPoint"/>
                        <Array as="points">
                            <mxPoint x="279" y="665"/>
                            <mxPoint x="394" y="665"/>
                        </Array>
                    </mxGeometry>
                </mxCell>
                <mxCell id="22" value="" style="endArrow=classic;html=1;exitX=0.5;exitY=1;exitDx=0;exitDy=0;entryX=0.5;entryY=0;entryDx=0;entryDy=0;" edge="1" parent="1" source="2" target="5">
                    <mxGeometry width="50" height="50" relative="1" as="geometry">
                        <mxPoint x="599" y="785" as="sourcePoint"/>
                        <mxPoint x="649" y="735" as="targetPoint"/>
                        <Array as="points">
                            <mxPoint x="565" y="665"/>
                            <mxPoint x="394" y="665"/>
                        </Array>
                    </mxGeometry>
                </mxCell>
                <mxCell id="23" value="" style="endArrow=classic;html=1;exitX=0.5;exitY=1;exitDx=0;exitDy=0;entryX=0.5;entryY=0;entryDx=0;entryDy=0;" edge="1" parent="1" source="5" target="6">
                    <mxGeometry width="50" height="50" relative="1" as="geometry">
                        <mxPoint x="589" y="805" as="sourcePoint"/>
                        <mxPoint x="639" y="755" as="targetPoint"/>
                    </mxGeometry>
                </mxCell>
                <mxCell id="24" value="" style="endArrow=classic;html=1;exitX=0;exitY=0.5;exitDx=0;exitDy=0;" edge="1" parent="1" source="9">
                    <mxGeometry width="50" height="50" relative="1" as="geometry">
                        <mxPoint x="130" y="335" as="sourcePoint"/>
                        <mxPoint x="150" y="365" as="targetPoint"/>
                    </mxGeometry>
                </mxCell>
                <mxCell id="25" value="音色&lt;br&gt;多规格立绘&lt;br&gt;自适应头像截取&lt;br&gt;昵称" style="rounded=1;whiteSpace=wrap;html=1;" vertex="1" parent="1">
                    <mxGeometry x="40" y="325" width="110" height="80" as="geometry"/>
                </mxCell>
                <mxCell id="26" value="消息队列编辑修改" style="rounded=1;whiteSpace=wrap;html=1;" vertex="1" parent="1">
                    <mxGeometry x="379" y="335" width="120" height="60" as="geometry"/>
                </mxCell>
                <mxCell id="27" value="" style="endArrow=classic;html=1;exitX=0.5;exitY=1;exitDx=0;exitDy=0;entryX=0.5;entryY=0;entryDx=0;entryDy=0;" edge="1" parent="1" source="8" target="26">
                    <mxGeometry width="50" height="50" relative="1" as="geometry">
                        <mxPoint x="730" y="205" as="sourcePoint"/>
                        <mxPoint x="780" y="155" as="targetPoint"/>
                    </mxGeometry>
                </mxCell>
                <mxCell id="28" value="" style="endArrow=classic;html=1;exitX=0.25;exitY=1;exitDx=0;exitDy=0;entryX=1;entryY=0.5;entryDx=0;entryDy=0;" edge="1" parent="1" source="26" target="3">
                    <mxGeometry width="50" height="50" relative="1" as="geometry">
                        <mxPoint x="750" y="615" as="sourcePoint"/>
                        <mxPoint x="800" y="565" as="targetPoint"/>
                        <Array as="points">
                            <mxPoint x="409" y="475"/>
                        </Array>
                    </mxGeometry>
                </mxCell>
                <mxCell id="29" value="" style="endArrow=classic;startArrow=classic;html=1;entryX=0;entryY=0.5;entryDx=0;entryDy=0;" edge="1" parent="1" target="10">
                    <mxGeometry width="50" height="50" relative="1" as="geometry">
                        <mxPoint x="500" y="365" as="sourcePoint"/>
                        <mxPoint x="490" y="415" as="targetPoint"/>
                    </mxGeometry>
                </mxCell>
                <mxCell id="30" value="音频模块" style="rounded=1;whiteSpace=wrap;html=1;" vertex="1" parent="1">
                    <mxGeometry x="1110" y="440" width="120" height="60" as="geometry"/>
                </mxCell>
                <mxCell id="32" value="视频模块" style="rounded=1;whiteSpace=wrap;html=1;" vertex="1" parent="1">
                    <mxGeometry x="1290" y="540" width="120" height="60" as="geometry"/>
                </mxCell>
                <mxCell id="33" value="渲染器" style="rounded=1;whiteSpace=wrap;html=1;" vertex="1" parent="1">
                    <mxGeometry x="1290" y="440" width="120" height="60" as="geometry"/>
                </mxCell>
                <mxCell id="34" value="消息队列模块" style="rounded=1;whiteSpace=wrap;html=1;" vertex="1" parent="1">
                    <mxGeometry x="1110" y="310" width="120" height="60" as="geometry"/>
                </mxCell>
                <mxCell id="35" value="场景,时间轴" style="rounded=1;whiteSpace=wrap;html=1;" vertex="1" parent="1">
                    <mxGeometry x="1110" y="180" width="120" height="60" as="geometry"/>
                </mxCell>
                <mxCell id="36" value="数据&lt;br&gt;缓存保存/恢复/下载" style="rounded=1;whiteSpace=wrap;html=1;" vertex="1" parent="1">
                    <mxGeometry x="930" y="310" width="120" height="60" as="geometry"/>
                </mxCell>
                <mxCell id="37" value="业务流程" style="text;html=1;strokeColor=none;fillColor=none;align=center;verticalAlign=middle;whiteSpace=wrap;rounded=0;" vertex="1" parent="1">
                    <mxGeometry x="379" y="40" width="106" height="20" as="geometry"/>
                </mxCell>
                <mxCell id="38" value="模块依赖" style="text;html=1;strokeColor=none;fillColor=none;align=center;verticalAlign=middle;whiteSpace=wrap;rounded=0;" vertex="1" parent="1">
                    <mxGeometry x="1200" y="40" width="90" height="20" as="geometry"/>
                </mxCell>
                <mxCell id="40" value="编辑器" style="rounded=1;whiteSpace=wrap;html=1;" vertex="1" parent="1">
                    <mxGeometry x="1470" y="440" width="120" height="60" as="geometry"/>
                </mxCell>
                <mxCell id="41" value="" style="endArrow=classic;startArrow=classic;html=1;entryX=1;entryY=0.5;entryDx=0;entryDy=0;exitX=0;exitY=0.5;exitDx=0;exitDy=0;" edge="1" parent="1" source="40" target="33">
                    <mxGeometry width="50" height="50" relative="1" as="geometry">
                        <mxPoint x="1480" y="530" as="sourcePoint"/>
                        <mxPoint x="1530" y="480" as="targetPoint"/>
                    </mxGeometry>
                </mxCell>
                <mxCell id="42" value="" style="endArrow=classic;html=1;exitX=0.5;exitY=1;exitDx=0;exitDy=0;entryX=0.5;entryY=0;entryDx=0;entryDy=0;" edge="1" parent="1" source="35" target="34">
                    <mxGeometry width="50" height="50" relative="1" as="geometry">
                        <mxPoint x="1330" y="230" as="sourcePoint"/>
                        <mxPoint x="1380" y="180" as="targetPoint"/>
                    </mxGeometry>
                </mxCell>
                <mxCell id="43" value="" style="endArrow=classic;html=1;exitX=0.5;exitY=1;exitDx=0;exitDy=0;entryX=0.5;entryY=0;entryDx=0;entryDy=0;" edge="1" parent="1" source="34" target="30">
                    <mxGeometry width="50" height="50" relative="1" as="geometry">
                        <mxPoint x="1330" y="360" as="sourcePoint"/>
                        <mxPoint x="1380" y="310" as="targetPoint"/>
                    </mxGeometry>
                </mxCell>
                <mxCell id="44" value="" style="endArrow=classic;html=1;exitX=1;exitY=0.5;exitDx=0;exitDy=0;entryX=0.5;entryY=0;entryDx=0;entryDy=0;" edge="1" parent="1" source="34" target="33">
                    <mxGeometry width="50" height="50" relative="1" as="geometry">
                        <mxPoint x="1290" y="370" as="sourcePoint"/>
                        <mxPoint x="1340" y="320" as="targetPoint"/>
                        <Array as="points">
                            <mxPoint x="1350" y="340"/>
                        </Array>
                    </mxGeometry>
                </mxCell>
                <mxCell id="45" value="" style="endArrow=classic;html=1;exitX=0.5;exitY=1;exitDx=0;exitDy=0;entryX=0.5;entryY=0;entryDx=0;entryDy=0;" edge="1" parent="1" source="33" target="32">
                    <mxGeometry width="50" height="50" relative="1" as="geometry">
                        <mxPoint x="1220" y="710" as="sourcePoint"/>
                        <mxPoint x="1270" y="660" as="targetPoint"/>
                    </mxGeometry>
                </mxCell>
                <mxCell id="46" value="" style="endArrow=classic;html=1;exitX=0;exitY=0.5;exitDx=0;exitDy=0;entryX=0.5;entryY=0;entryDx=0;entryDy=0;" edge="1" parent="1" source="35" target="36">
                    <mxGeometry width="50" height="50" relative="1" as="geometry">
                        <mxPoint x="1050" y="250" as="sourcePoint"/>
                        <mxPoint x="1100" y="200" as="targetPoint"/>
                        <Array as="points">
                            <mxPoint x="990" y="210"/>
                        </Array>
                    </mxGeometry>
                </mxCell>
                <mxCell id="47" value="" style="endArrow=classic;html=1;entryX=0.5;entryY=1;entryDx=0;entryDy=0;exitX=0;exitY=0.5;exitDx=0;exitDy=0;" edge="1" parent="1" source="30" target="36">
                    <mxGeometry width="50" height="50" relative="1" as="geometry">
                        <mxPoint x="1050" y="600" as="sourcePoint"/>
                        <mxPoint x="1100" y="550" as="targetPoint"/>
                        <Array as="points">
                            <mxPoint x="990" y="470"/>
                        </Array>
                    </mxGeometry>
                </mxCell>
                <mxCell id="48" value="" style="endArrow=classic;html=1;exitX=0;exitY=0.5;exitDx=0;exitDy=0;entryX=1;entryY=0.5;entryDx=0;entryDy=0;" edge="1" parent="1" source="34" target="36">
                    <mxGeometry width="50" height="50" relative="1" as="geometry">
                        <mxPoint x="1050" y="430" as="sourcePoint"/>
                        <mxPoint x="1100" y="380" as="targetPoint"/>
                    </mxGeometry>
                </mxCell>
            </root>
        </mxGraphModel>
    </diagram>
</mxfile>